# xmcd CD database file
#
# Track frame offsets:
#	150
#	25552
#	53461
#	70320
#	83150
#	95478
#	115685
#	144777
#	163151
#	185541
#	208647
#	223159
#
# Disc length: 3330 seconds
#
# Revision: 2
# Processed by: cddbd v1.5.1PL0 Copyright (c) Steve Scherf et al.
# Submitted via: CDex 1.51
#
DISCID=9e0d000c
DTITLE=Van Morrison - Magic Time
DYEAR=2005
DGENRE=Blues
TTITLE0=Stranded
TTITLE1=Celtic new year
TTITLE2=Keep mediocrity at bay
TTITLE3=Evening train
TTITLE4=This love of mine
TTITLE5=I'm confession'
TTITLE6=Just like greta
TTITLE7=Gypsy in my soul
TTITLE8=The lion this time
TTITLE9=Magic time
TTITLE10=They sold me out
TTITLE11=Carry on regardless
EXTD=YEAR: 2005
EXTT0=
EXTT1=
EXTT2=
EXTT3=
EXTT4=
EXTT5=
EXTT6=
EXTT7=
EXTT8=
EXTT9=
EXTT10=
EXTT11=
PLAYORDER=
